<svg viewBox="0 0 24 24" fill="none" xmlns="http://www.w3.org/2000/svg" id="Filter-Alt-Off--Streamline-Outlined-Material" height="24" width="24">
  <desc>
    Filter Alt Off Streamline Icon: https://streamlinehq.com
  </desc>
  <g id="filter-alt-off">
    <path id="Vector" d="m14.4999 12.3751 -1.075 -1.075 4.575 -5.8h-10.375l-1.5 -1.5h13.175c0.35 0 0.60835 0.15833 0.775 0.475 0.16665 0.316665 0.13335 0.61665 -0.1 0.9l-5.475 7Zm5.825 10.1 -6.325 -6.325v2.85c0 0.28335 -0.09585 0.52085 -0.2875 0.7125s-0.42915 0.2875 -0.7125 0.2875h-2c-0.28335 0 -0.52085 -0.09585 -0.7125 -0.2875s-0.2875 -0.42915 -0.2875 -0.7125v-6.85l-8.475 -8.475 1.075 -1.075 18.8 18.8 -1.075 1.075Z" fill="#000000" stroke-width="0.5"></path>
  </g>
</svg>